<?xml version="1.0" encoding="UTF-8"?>
<svg width="88px" height="50px" viewBox="0 0 88 50" version="1.1" xmlns="http://www.w3.org/2000/svg" xmlns:xlink="http://www.w3.org/1999/xlink">
    <title>Symbol_LFG</title>
    <defs>
        <path d="M6.23976296,2.97938389 C17.2145778,-2.94478673 31.033837,0.42014218 38.1449481,10.7045024 C46.2042074,22.3632701 42.9330963,38.3348341 31.1286519,45.8940758 C21.4812444,52.0552133 8.87087407,50.7518957 0.693096296,42.7424171 C0.479762963,42.5291469 0.456059259,42.1973934 0.645688889,41.9841232 C8.3968,32.0315166 8.23087407,18.0267773 0.242725926,8.24004739 C0.0530962963,8.00308057 0.0768,7.6950237 0.26642963,7.48175355" id="path-1"></path>
        <polygon id="path-3" points="0.0142997889 0.184564501 48.1721755 0.184564501 48.1721755 49.4398057 0.0142997889 49.4398057"></polygon>
    </defs>
    <g id="Page-1" stroke="none" strokeWidth="1" fill="none" fillRule="evenodd">
        <g id="PC_Home" transform="translate(-320.000000, -32.000000)">
            <g id="Symbol_LFG" transform="translate(320.000000, 32.000000)">
                <g id="Group-194" transform="translate(45.333333, 0.000000)">
                    <mask id="mask-2" fill="white">
                        <use xlink:href="#path-1"></use>
                    </mask>
                    <g id="Clip-2"></g>
                    <path d="M40.6236444,0.209004739 C40.8391111,-0.310900474 41.4352593,-0.557819905 41.9553185,-0.342417062 C42.4756148,-0.127014218 42.7226074,0.468957346 42.5071407,0.988862559 C42.2916741,1.50876777 41.6952889,1.7556872 41.1752296,1.54028436 C40.6551704,1.32488152 40.4081778,0.728909953 40.6236444,0.209004739" id="Fill-1" fill="#E6763A" mask="url(#mask-2)"></path>
                    <path d="M40.621037,3.43080569 C40.8365037,2.91090047 41.4326519,2.66398104 41.9527111,2.87914692 C42.4727704,3.09454976 42.719763,3.69075829 42.5042963,4.21066351 C42.2890667,4.73056872 41.6926815,4.97748815 41.1726222,4.76208531 C40.652563,4.54668246 40.4055704,3.9507109 40.621037,3.43080569" id="Fill-3" fill="#E6763A" mask="url(#mask-2)"></path>
                    <path d="M40.6184296,6.65236967 C40.8338963,6.13246445 41.4300444,5.88554502 41.9501037,6.10094787 C42.470163,6.31635071 42.7171556,6.91255924 42.5016889,7.43246445 C42.2864593,7.95236967 41.6900741,8.1992891 41.1700148,7.98388626 C40.6499556,7.76848341 40.402963,7.17227488 40.6184296,6.65236967" id="Fill-4" fill="#E6763A" mask="url(#mask-2)"></path>
                    <path d="M40.6184296,9.87535545 C40.8338963,9.35545024 41.4300444,9.10853081 41.9503407,9.32393365 C42.4704,9.53933649 42.7173926,10.1353081 42.5019259,10.6552133 C42.2864593,11.1751185 41.6900741,11.4220379 41.1700148,11.2066351 C40.6499556,10.9914692 40.402963,10.3952607 40.6184296,9.87535545" id="Fill-5" fill="#E6763A" mask="url(#mask-2)"></path>
                    <path d="M40.6158222,13.0971564 C40.8312889,12.5772512 41.427437,12.3303318 41.9474963,12.5457346 C42.4675556,12.7611374 42.7145481,13.357109 42.4993185,13.8770142 C42.2838519,14.3969194 41.6874667,14.6438389 41.1674074,14.428436 C40.6473481,14.2130332 40.4003556,13.6170616 40.6158222,13.0971564" id="Fill-6" fill="#E6763A" mask="url(#mask-2)"></path>
                    <path d="M40.6132148,16.3189573 C40.8286815,15.7988152 41.4248296,15.5521327 41.9448889,15.7672986 C42.4649481,15.9827014 42.7119407,16.57891 42.4964741,17.0988152 C42.2812444,17.6187204 41.6848593,17.8656398 41.1648,17.650237 C40.6447407,17.4348341 40.3977481,16.8388626 40.6132148,16.3189573" id="Fill-7" fill="#E6763A" mask="url(#mask-2)"></path>
                    <path d="M40.6155852,19.5663507 C40.8310519,19.0464455 41.427437,18.7995261 41.9474963,19.0149289 C42.4675556,19.2303318 42.7145481,19.8263033 42.4990815,20.3464455 C42.2836148,20.8663507 41.6874667,21.1130332 41.1674074,20.8978673 C40.6471111,20.6824645 40.4003556,20.0862559 40.6155852,19.5663507" id="Fill-8" fill="#E6763A" mask="url(#mask-2)"></path>
                    <path d="M40.6129778,22.7881517 C40.8284444,22.2682464 41.4248296,22.021327 41.9448889,22.2367299 C42.4649481,22.4521327 42.7119407,23.0481043 42.4964741,23.5680095 C42.2810074,24.0879147 41.6848593,24.3348341 41.164563,24.1194313 C40.6445037,23.9042654 40.3975111,23.3080569 40.6129778,22.7881517" id="Fill-9" fill="#E6763A" mask="url(#mask-2)"></path>
                    <path d="M40.6132148,26.0111374 C40.8284444,25.4912322 41.4248296,25.2443128 41.9448889,25.4597156 C42.4649481,25.6748815 42.7119407,26.27109 42.4964741,26.7909953 C42.2810074,27.3109005 41.6848593,27.5578199 41.1648,27.3424171 C40.6447407,27.1270142 40.3977481,26.5310427 40.6132148,26.0111374" id="Fill-10" fill="#E6763A" mask="url(#mask-2)"></path>
                    <path d="M40.6324148,29.2419431 C40.8478815,28.7220379 41.4440296,28.4751185 41.9640889,28.6905213 C42.4841481,28.9059242 42.7311407,29.5018957 42.5156741,30.0218009 C42.3004444,30.5417062 41.7040593,30.7886256 41.184,30.5732227 C40.6639407,30.3578199 40.4169481,29.7618483 40.6324148,29.2419431" id="Fill-11" fill="#E6763A" mask="url(#mask-2)"></path>
                    <path d="M40.6298074,32.4637441 C40.8452741,31.9436019 41.4414222,31.6969194 41.9614815,31.9120853 C42.4815407,32.1274882 42.7285333,32.7236967 42.5130667,33.2436019 C42.297837,33.7635071 41.7014519,34.0104265 41.1813926,33.7950237 C40.6613333,33.5796209 40.4143407,32.9836493 40.6298074,32.4637441" id="Fill-12" fill="#E6763A" mask="url(#mask-2)"></path>
                    <path d="M40.6272,35.6853081 C40.8424296,35.1654028 41.4388148,34.9184834 41.9588741,35.1338863 C42.4789333,35.3492891 42.7259259,35.9454976 42.5104593,36.4654028 C42.2949926,36.9853081 41.6988444,37.2322275 41.1787852,37.0168246 C40.6587259,36.8014218 40.4117333,36.2052133 40.6272,35.6853081" id="Fill-13" fill="#E6763A" mask="url(#mask-2)"></path>
                    <path d="M40.6245926,38.907109 C40.8398222,38.3872038 41.4362074,38.1402844 41.9562667,38.3556872 C42.4763259,38.57109 42.7233185,39.1670616 42.5078519,39.6869668 C42.2923852,40.206872 41.696237,40.4537915 41.1761778,40.2386256 C40.6561185,40.0232227 40.4091259,39.4270142 40.6245926,38.907109" id="Fill-14" fill="#E6763A" mask="url(#mask-2)"></path>
                    <path d="M41.5582815,41.5101896 C42.1212444,41.5101896 42.5775407,41.9663507 42.5775407,42.5291469 C42.5775407,43.0919431 42.1212444,43.5481043 41.5582815,43.5481043 C40.9953185,43.5481043 40.5390222,43.0919431 40.5390222,42.5291469 C40.5390222,41.9663507 40.9953185,41.5101896 41.5582815,41.5101896" id="Fill-15" fill="#E6763A" mask="url(#mask-2)"></path>
                    <path d="M41.5582815,44.7329384 C42.1212444,44.7329384 42.5775407,45.1890995 42.5775407,45.7518957 C42.5775407,46.3146919 42.1212444,46.7708531 41.5582815,46.7708531 C40.9953185,46.7708531 40.5390222,46.3146919 40.5390222,45.7518957 C40.5390222,45.1890995 40.9953185,44.7329384 41.5582815,44.7329384" id="Fill-16" fill="#E6763A" mask="url(#mask-2)"></path>
                    <path d="M41.5582815,47.9556872 C42.1212444,47.9556872 42.5775407,48.4118483 42.5775407,48.9746445 C42.5775407,49.5374408 42.1212444,49.9936019 41.5582815,49.9936019 C40.9953185,49.9936019 40.5390222,49.5374408 40.5390222,48.9746445 C40.5390222,48.4118483 40.9953185,47.9556872 41.5582815,47.9556872" id="Fill-17" fill="#E6763A" mask="url(#mask-2)"></path>
                    <path d="M37.8842074,-0.409241706 C38.4471704,-0.409241706 38.9034667,0.0469194313 38.9034667,0.60971564 C38.9034667,1.17251185 38.4471704,1.62867299 37.8842074,1.62867299 C37.3212444,1.62867299 36.8649481,1.17251185 36.8649481,0.60971564 C36.8649481,0.0469194313 37.3212444,-0.409241706 37.8842074,-0.409241706" id="Fill-18" fill="#E6763A" mask="url(#mask-2)"></path>
                    <path d="M37.8842074,2.81350711 C38.4471704,2.81350711 38.9034667,3.26966825 38.9034667,3.83246445 C38.9034667,4.3950237 38.4471704,4.8514218 37.8842074,4.8514218 C37.3212444,4.8514218 36.8649481,4.3950237 36.8649481,3.83246445 C36.8649481,3.26966825 37.3212444,2.81350711 37.8842074,2.81350711" id="Fill-19" fill="#E6763A" mask="url(#mask-2)"></path>
                    <path d="M37.8842074,6.03625592 C38.4471704,6.03625592 38.9034667,6.49241706 38.9034667,7.05521327 C38.9034667,7.61777251 38.4471704,8.07417062 37.8842074,8.07417062 C37.3212444,8.07417062 36.8649481,7.61777251 36.8649481,7.05521327 C36.8649481,6.49241706 37.3212444,6.03625592 37.8842074,6.03625592" id="Fill-20" fill="#E6763A" mask="url(#mask-2)"></path>
                    <path d="M37.8842074,9.25900474 C38.4471704,9.25900474 38.9034667,9.71516588 38.9034667,10.2779621 C38.9034667,10.8405213 38.4471704,11.2969194 37.8842074,11.2969194 C37.3212444,11.2969194 36.8649481,10.8405213 36.8649481,10.2779621 C36.8649481,9.71516588 37.3212444,9.25900474 37.8842074,9.25900474" id="Fill-21" fill="#E6763A" mask="url(#mask-2)"></path>
                    <path d="M37.8842074,12.4817536 C38.4471704,12.4817536 38.9034667,12.9379147 38.9034667,13.5007109 C38.9034667,14.0632701 38.4471704,14.5196682 37.8842074,14.5196682 C37.3212444,14.5196682 36.8649481,14.0632701 36.8649481,13.5007109 C36.8649481,12.9379147 37.3212444,12.4817536 37.8842074,12.4817536" id="Fill-22" fill="#E6763A" mask="url(#mask-2)"></path>
                    <path d="M37.8842074,15.7045024 C38.4471704,15.7045024 38.9034667,16.1606635 38.9034667,16.7234597 C38.9034667,17.286019 38.4471704,17.7424171 37.8842074,17.7424171 C37.3212444,17.7424171 36.8649481,17.286019 36.8649481,16.7234597 C36.8649481,16.1606635 37.3212444,15.7045024 37.8842074,15.7045024" id="Fill-23" fill="#E6763A" mask="url(#mask-2)"></path>
                    <path d="M37.8842074,18.9509479 C38.4471704,18.9509479 38.9034667,19.407109 38.9034667,19.9699052 C38.9034667,20.5324645 38.4471704,20.9888626 37.8842074,20.9888626 C37.3212444,20.9888626 36.8649481,20.5324645 36.8649481,19.9699052 C36.8649481,19.407109 37.3212444,18.9509479 37.8842074,18.9509479" id="Fill-24" fill="#E6763A" mask="url(#mask-2)"></path>
                    <path d="M37.8842074,22.1736967 C38.4471704,22.1736967 38.9034667,22.6298578 38.9034667,23.192654 C38.9034667,23.7552133 38.4471704,24.2116114 37.8842074,24.2116114 C37.3212444,24.2116114 36.8649481,23.7552133 36.8649481,23.192654 C36.8649481,22.6298578 37.3212444,22.1736967 37.8842074,22.1736967" id="Fill-25" fill="#E6763A" mask="url(#mask-2)"></path>
                    <path d="M37.8842074,25.3964455 C38.4471704,25.3964455 38.9034667,25.8526066 38.9034667,26.4154028 C38.9034667,26.9781991 38.4471704,27.4343602 37.8842074,27.4343602 C37.3212444,27.4343602 36.8649481,26.9781991 36.8649481,26.4154028 C36.8649481,25.8526066 37.3212444,25.3964455 37.8842074,25.3964455" id="Fill-26" fill="#E6763A" mask="url(#mask-2)"></path>
                    <path d="M37.8842074,28.6191943 C38.4471704,28.6191943 38.9034667,29.0753555 38.9034667,29.6381517 C38.9034667,30.2009479 38.4471704,30.657109 37.8842074,30.657109 C37.3212444,30.657109 36.8649481,30.2009479 36.8649481,29.6381517 C36.8649481,29.0753555 37.3212444,28.6191943 37.8842074,28.6191943" id="Fill-27" fill="#E6763A" mask="url(#mask-2)"></path>
                    <path d="M37.8842074,31.8419431 C38.4471704,31.8419431 38.9034667,32.2981043 38.9034667,32.8609005 C38.9034667,33.4236967 38.4471704,33.8798578 37.8842074,33.8798578 C37.3212444,33.8798578 36.8649481,33.4236967 36.8649481,32.8609005 C36.8649481,32.2981043 37.3212444,31.8419431 37.8842074,31.8419431" id="Fill-28" fill="#E6763A" mask="url(#mask-2)"></path>
                    <path d="M37.8842074,35.0646919 C38.4471704,35.0646919 38.9034667,35.5208531 38.9034667,36.0836493 C38.9034667,36.6464455 38.4471704,37.1026066 37.8842074,37.1026066 C37.3212444,37.1026066 36.8649481,36.6464455 36.8649481,36.0836493 C36.8649481,35.5208531 37.3212444,35.0646919 37.8842074,35.0646919" id="Fill-29" fill="#E6763A" mask="url(#mask-2)"></path>
                    <path d="M37.8842074,38.2874408 C38.4471704,38.2874408 38.9034667,38.7436019 38.9034667,39.3063981 C38.9034667,39.8691943 38.4471704,40.3253555 37.8842074,40.3253555 C37.3212444,40.3253555 36.8649481,39.8691943 36.8649481,39.3063981 C36.8649481,38.7436019 37.3212444,38.2874408 37.8842074,38.2874408" id="Fill-30" fill="#E6763A" mask="url(#mask-2)"></path>
                    <path d="M37.8842074,41.5101896 C38.4471704,41.5101896 38.9034667,41.9663507 38.9034667,42.5291469 C38.9034667,43.0919431 38.4471704,43.5481043 37.8842074,43.5481043 C37.3212444,43.5481043 36.8649481,43.0919431 36.8649481,42.5291469 C36.8649481,41.9663507 37.3212444,41.5101896 37.8842074,41.5101896" id="Fill-31" fill="#E6763A" mask="url(#mask-2)"></path>
                    <path d="M37.8842074,44.7329384 C38.4471704,44.7329384 38.9034667,45.1890995 38.9034667,45.7518957 C38.9034667,46.3146919 38.4471704,46.7708531 37.8842074,46.7708531 C37.3212444,46.7708531 36.8649481,46.3146919 36.8649481,45.7518957 C36.8649481,45.1890995 37.3212444,44.7329384 37.8842074,44.7329384" id="Fill-32" fill="#E6763A" mask="url(#mask-2)"></path>
                    <path d="M37.8842074,47.9556872 C38.4471704,47.9556872 38.9034667,48.4118483 38.9034667,48.9746445 C38.9034667,49.5374408 38.4471704,49.9936019 37.8842074,49.9936019 C37.3212444,49.9936019 36.8649481,49.5374408 36.8649481,48.9746445 C36.8649481,48.4118483 37.3212444,47.9556872 37.8842074,47.9556872" id="Fill-33" fill="#E6763A" mask="url(#mask-2)"></path>
                    <path d="M34.2101333,-0.409241706 C34.7730963,-0.409241706 35.2293926,0.0469194313 35.2293926,0.60971564 C35.2293926,1.17251185 34.7730963,1.62867299 34.2101333,1.62867299 C33.6471704,1.62867299 33.1908741,1.17251185 33.1908741,0.60971564 C33.1908741,0.0469194313 33.6471704,-0.409241706 34.2101333,-0.409241706" id="Fill-34" fill="#E6763A" mask="url(#mask-2)"></path>
                    <path d="M34.2101333,2.81350711 C34.7730963,2.81350711 35.2293926,3.26966825 35.2293926,3.83246445 C35.2293926,4.3950237 34.7730963,4.8514218 34.2101333,4.8514218 C33.6471704,4.8514218 33.1908741,4.3950237 33.1908741,3.83246445 C33.1908741,3.26966825 33.6471704,2.81350711 34.2101333,2.81350711" id="Fill-35" fill="#E6763A" mask="url(#mask-2)"></path>
                    <path d="M34.2101333,6.03625592 C34.7730963,6.03625592 35.2293926,6.49241706 35.2293926,7.05521327 C35.2293926,7.61777251 34.7730963,8.07417062 34.2101333,8.07417062 C33.6471704,8.07417062 33.1908741,7.61777251 33.1908741,7.05521327 C33.1908741,6.49241706 33.6471704,6.03625592 34.2101333,6.03625592" id="Fill-36" fill="#E6763A" mask="url(#mask-2)"></path>
                    <path d="M34.2101333,9.25900474 C34.7730963,9.25900474 35.2293926,9.71516588 35.2293926,10.2779621 C35.2293926,10.8405213 34.7730963,11.2969194 34.2101333,11.2969194 C33.6471704,11.2969194 33.1908741,10.8405213 33.1908741,10.2779621 C33.1908741,9.71516588 33.6471704,9.25900474 34.2101333,9.25900474" id="Fill-37" fill="#E6763A" mask="url(#mask-2)"></path>
                    <path d="M34.2101333,12.4817536 C34.7730963,12.4817536 35.2293926,12.9379147 35.2293926,13.5007109 C35.2293926,14.0632701 34.7730963,14.5196682 34.2101333,14.5196682 C33.6471704,14.5196682 33.1908741,14.0632701 33.1908741,13.5007109 C33.1908741,12.9379147 33.6471704,12.4817536 34.2101333,12.4817536" id="Fill-38" fill="#E6763A" mask="url(#mask-2)"></path>
                    <path d="M34.2101333,15.7045024 C34.7730963,15.7045024 35.2293926,16.1606635 35.2293926,16.7234597 C35.2293926,17.286019 34.7730963,17.7424171 34.2101333,17.7424171 C33.6471704,17.7424171 33.1908741,17.286019 33.1908741,16.7234597 C33.1908741,16.1606635 33.6471704,15.7045024 34.2101333,15.7045024" id="Fill-39" fill="#E6763A" mask="url(#mask-2)"></path>
                    <path d="M34.2101333,18.9509479 C34.7730963,18.9509479 35.2293926,19.407109 35.2293926,19.9699052 C35.2293926,20.5324645 34.7730963,20.9888626 34.2101333,20.9888626 C33.6471704,20.9888626 33.1908741,20.5324645 33.1908741,19.9699052 C33.1908741,19.407109 33.6471704,18.9509479 34.2101333,18.9509479" id="Fill-40" fill="#E6763A" mask="url(#mask-2)"></path>
                    <path d="M34.2101333,22.1736967 C34.7730963,22.1736967 35.2293926,22.6298578 35.2293926,23.192654 C35.2293926,23.7552133 34.7730963,24.2116114 34.2101333,24.2116114 C33.6471704,24.2116114 33.1908741,23.7552133 33.1908741,23.192654 C33.1908741,22.6298578 33.6471704,22.1736967 34.2101333,22.1736967" id="Fill-41" fill="#E6763A" mask="url(#mask-2)"></path>
                    <path d="M34.2101333,25.3964455 C34.7730963,25.3964455 35.2293926,25.8526066 35.2293926,26.4154028 C35.2293926,26.9781991 34.7730963,27.4343602 34.2101333,27.4343602 C33.6471704,27.4343602 33.1908741,26.9781991 33.1908741,26.4154028 C33.1908741,25.8526066 33.6471704,25.3964455 34.2101333,25.3964455" id="Fill-42" fill="#E6763A" mask="url(#mask-2)"></path>
                    <path d="M34.2101333,28.6191943 C34.7730963,28.6191943 35.2293926,29.0753555 35.2293926,29.6381517 C35.2293926,30.2009479 34.7730963,30.657109 34.2101333,30.657109 C33.6471704,30.657109 33.1908741,30.2009479 33.1908741,29.6381517 C33.1908741,29.0753555 33.6471704,28.6191943 34.2101333,28.6191943" id="Fill-43" fill="#E6763A" mask="url(#mask-2)"></path>
                    <path d="M34.2101333,31.8419431 C34.7730963,31.8419431 35.2293926,32.2981043 35.2293926,32.8609005 C35.2293926,33.4236967 34.7730963,33.8798578 34.2101333,33.8798578 C33.6471704,33.8798578 33.1908741,33.4236967 33.1908741,32.8609005 C33.1908741,32.2981043 33.6471704,31.8419431 34.2101333,31.8419431" id="Fill-44" fill="#E6763A" mask="url(#mask-2)"></path>
                    <path d="M34.2101333,35.0646919 C34.7730963,35.0646919 35.2293926,35.5208531 35.2293926,36.0836493 C35.2293926,36.6464455 34.7730963,37.1026066 34.2101333,37.1026066 C33.6471704,37.1026066 33.1908741,36.6464455 33.1908741,36.0836493 C33.1908741,35.5208531 33.6471704,35.0646919 34.2101333,35.0646919" id="Fill-45" fill="#E6763A" mask="url(#mask-2)"></path>
                    <path d="M34.2101333,38.2874408 C34.7730963,38.2874408 35.2293926,38.7436019 35.2293926,39.3063981 C35.2293926,39.8691943 34.7730963,40.3253555 34.2101333,40.3253555 C33.6471704,40.3253555 33.1908741,39.8691943 33.1908741,39.3063981 C33.1908741,38.7436019 33.6471704,38.2874408 34.2101333,38.2874408" id="Fill-46" fill="#E6763A" mask="url(#mask-2)"></path>
                    <path d="M34.2101333,41.5101896 C34.7730963,41.5101896 35.2293926,41.9663507 35.2293926,42.5291469 C35.2293926,43.0919431 34.7730963,43.5481043 34.2101333,43.5481043 C33.6471704,43.5481043 33.1908741,43.0919431 33.1908741,42.5291469 C33.1908741,41.9663507 33.6471704,41.5101896 34.2101333,41.5101896" id="Fill-47" fill="#E6763A" mask="url(#mask-2)"></path>
                    <path d="M34.2101333,44.7329384 C34.7730963,44.7329384 35.2293926,45.1890995 35.2293926,45.7518957 C35.2293926,46.3146919 34.7730963,46.7708531 34.2101333,46.7708531 C33.6471704,46.7708531 33.1908741,46.3146919 33.1908741,45.7518957 C33.1908741,45.1890995 33.6471704,44.7329384 34.2101333,44.7329384" id="Fill-48" fill="#E6763A" mask="url(#mask-2)"></path>
                    <path d="M34.2101333,47.9556872 C34.7730963,47.9556872 35.2293926,48.4118483 35.2293926,48.9746445 C35.2293926,49.5374408 34.7730963,49.9936019 34.2101333,49.9936019 C33.6471704,49.9936019 33.1908741,49.5374408 33.1908741,48.9746445 C33.1908741,48.4118483 33.6471704,47.9556872 34.2101333,47.9556872" id="Fill-49" fill="#E6763A" mask="url(#mask-2)"></path>
                    <path d="M30.5360593,-0.409241706 C31.0990222,-0.409241706 31.5553185,0.0469194313 31.5553185,0.60971564 C31.5553185,1.17251185 31.0990222,1.62867299 30.5360593,1.62867299 C29.9730963,1.62867299 29.5168,1.17251185 29.5168,0.60971564 C29.5168,0.0469194313 29.9730963,-0.409241706 30.5360593,-0.409241706" id="Fill-50" fill="#E6763A" mask="url(#mask-2)"></path>
                    <path d="M30.5360593,2.81350711 C31.0990222,2.81350711 31.5553185,3.26966825 31.5553185,3.83246445 C31.5553185,4.3950237 31.0990222,4.8514218 30.5360593,4.8514218 C29.9730963,4.8514218 29.5168,4.3950237 29.5168,3.83246445 C29.5168,3.26966825 29.9730963,2.81350711 30.5360593,2.81350711" id="Fill-51" fill="#E6763A" mask="url(#mask-2)"></path>
                    <path d="M30.5360593,6.03625592 C31.0990222,6.03625592 31.5553185,6.49241706 31.5553185,7.05521327 C31.5553185,7.61777251 31.0990222,8.07417062 30.5360593,8.07417062 C29.9730963,8.07417062 29.5168,7.61777251 29.5168,7.05521327 C29.5168,6.49241706 29.9730963,6.03625592 30.5360593,6.03625592" id="Fill-52" fill="#E6763A" mask="url(#mask-2)"></path>
                    <path d="M30.5360593,9.25900474 C31.0990222,9.25900474 31.5553185,9.71516588 31.5553185,10.2779621 C31.5553185,10.8405213 31.0990222,11.2969194 30.5360593,11.2969194 C29.9730963,11.2969194 29.5168,10.8405213 29.5168,10.2779621 C29.5168,9.71516588 29.9730963,9.25900474 30.5360593,9.25900474" id="Fill-53" fill="#E6763A" mask="url(#mask-2)"></path>
                    <path d="M30.5360593,12.4817536 C31.0990222,12.4817536 31.5553185,12.9379147 31.5553185,13.5007109 C31.5553185,14.0632701 31.0990222,14.5196682 30.5360593,14.5196682 C29.9730963,14.5196682 29.5168,14.0632701 29.5168,13.5007109 C29.5168,12.9379147 29.9730963,12.4817536 30.5360593,12.4817536" id="Fill-54" fill="#E6763A" mask="url(#mask-2)"></path>
                    <path d="M30.5360593,15.7045024 C31.0990222,15.7045024 31.5553185,16.1606635 31.5553185,16.7234597 C31.5553185,17.286019 31.0990222,17.7424171 30.5360593,17.7424171 C29.9730963,17.7424171 29.5168,17.286019 29.5168,16.7234597 C29.5168,16.1606635 29.9730963,15.7045024 30.5360593,15.7045024" id="Fill-55" fill="#E6763A" mask="url(#mask-2)"></path>
                    <path d="M30.5360593,18.9509479 C31.0990222,18.9509479 31.5553185,19.407109 31.5553185,19.9699052 C31.5553185,20.5324645 31.0990222,20.9888626 30.5360593,20.9888626 C29.9730963,20.9888626 29.5168,20.5324645 29.5168,19.9699052 C29.5168,19.407109 29.9730963,18.9509479 30.5360593,18.9509479" id="Fill-56" fill="#E6763A" mask="url(#mask-2)"></path>
                    <path d="M30.5360593,22.1736967 C31.0990222,22.1736967 31.5553185,22.6298578 31.5553185,23.192654 C31.5553185,23.7552133 31.0990222,24.2116114 30.5360593,24.2116114 C29.9730963,24.2116114 29.5168,23.7552133 29.5168,23.192654 C29.5168,22.6298578 29.9730963,22.1736967 30.5360593,22.1736967" id="Fill-57" fill="#E6763A" mask="url(#mask-2)"></path>
                    <path d="M30.5360593,25.3964455 C31.0990222,25.3964455 31.5553185,25.8526066 31.5553185,26.4154028 C31.5553185,26.9781991 31.0990222,27.4343602 30.5360593,27.4343602 C29.9730963,27.4343602 29.5168,26.9781991 29.5168,26.4154028 C29.5168,25.8526066 29.9730963,25.3964455 30.5360593,25.3964455" id="Fill-58" fill="#E6763A" mask="url(#mask-2)"></path>
                    <path d="M30.5360593,28.6191943 C31.0990222,28.6191943 31.5553185,29.0753555 31.5553185,29.6381517 C31.5553185,30.2009479 31.0990222,30.657109 30.5360593,30.657109 C29.9730963,30.657109 29.5168,30.2009479 29.5168,29.6381517 C29.5168,29.0753555 29.9730963,28.6191943 30.5360593,28.6191943" id="Fill-59" fill="#E6763A" mask="url(#mask-2)"></path>
                    <path d="M30.5360593,31.8419431 C31.0990222,31.8419431 31.5553185,32.2981043 31.5553185,32.8609005 C31.5553185,33.4236967 31.0990222,33.8798578 30.5360593,33.8798578 C29.9730963,33.8798578 29.5168,33.4236967 29.5168,32.8609005 C29.5168,32.2981043 29.9730963,31.8419431 30.5360593,31.8419431" id="Fill-60" fill="#E6763A" mask="url(#mask-2)"></path>
                    <path d="M30.5360593,35.0646919 C31.0990222,35.0646919 31.5553185,35.5208531 31.5553185,36.0836493 C31.5553185,36.6464455 31.0990222,37.1026066 30.5360593,37.1026066 C29.9730963,37.1026066 29.5168,36.6464455 29.5168,36.0836493 C29.5168,35.5208531 29.9730963,35.0646919 30.5360593,35.0646919" id="Fill-61" fill="#E6763A" mask="url(#mask-2)"></path>
                    <path d="M30.5360593,38.2874408 C31.0990222,38.2874408 31.5553185,38.7436019 31.5553185,39.3063981 C31.5553185,39.8691943 31.0990222,40.3253555 30.5360593,40.3253555 C29.9730963,40.3253555 29.5168,39.8691943 29.5168,39.3063981 C29.5168,38.7436019 29.9730963,38.2874408 30.5360593,38.2874408" id="Fill-62" fill="#E6763A" mask="url(#mask-2)"></path>
                    <path d="M30.5360593,41.5101896 C31.0990222,41.5101896 31.5553185,41.9663507 31.5553185,42.5291469 C31.5553185,43.0919431 31.0990222,43.5481043 30.5360593,43.5481043 C29.9730963,43.5481043 29.5168,43.0919431 29.5168,42.5291469 C29.5168,41.9663507 29.9730963,41.5101896 30.5360593,41.5101896" id="Fill-63" fill="#E6763A" mask="url(#mask-2)"></path>
                    <path d="M30.5360593,44.7329384 C31.0990222,44.7329384 31.5553185,45.1890995 31.5553185,45.7518957 C31.5553185,46.3146919 31.0990222,46.7708531 30.5360593,46.7708531 C29.9730963,46.7708531 29.5168,46.3146919 29.5168,45.7518957 C29.5168,45.1890995 29.9730963,44.7329384 30.5360593,44.7329384" id="Fill-64" fill="#E6763A" mask="url(#mask-2)"></path>
                    <path d="M30.5360593,47.9556872 C31.0990222,47.9556872 31.5553185,48.4118483 31.5553185,48.9746445 C31.5553185,49.5374408 31.0990222,49.9936019 30.5360593,49.9936019 C29.9730963,49.9936019 29.5168,49.5374408 29.5168,48.9746445 C29.5168,48.4118483 29.9730963,47.9556872 30.5360593,47.9556872" id="Fill-65" fill="#E6763A" mask="url(#mask-2)"></path>
                    <path d="M26.8619852,-0.409241706 C27.4249481,-0.409241706 27.8812444,0.0469194313 27.8812444,0.60971564 C27.8812444,1.17251185 27.4249481,1.62867299 26.8619852,1.62867299 C26.2990222,1.62867299 25.8427259,1.17251185 25.8427259,0.60971564 C25.8427259,0.0469194313 26.2990222,-0.409241706 26.8619852,-0.409241706" id="Fill-66" fill="#E6763A" mask="url(#mask-2)"></path>
                    <path d="M26.8619852,2.81350711 C27.4249481,2.81350711 27.8812444,3.26966825 27.8812444,3.83246445 C27.8812444,4.3950237 27.4249481,4.8514218 26.8619852,4.8514218 C26.2990222,4.8514218 25.8427259,4.3950237 25.8427259,3.83246445 C25.8427259,3.26966825 26.2990222,2.81350711 26.8619852,2.81350711" id="Fill-67" fill="#E6763A" mask="url(#mask-2)"></path>
                    <path d="M26.8619852,6.03625592 C27.4249481,6.03625592 27.8812444,6.49241706 27.8812444,7.05521327 C27.8812444,7.61777251 27.4249481,8.07417062 26.8619852,8.07417062 C26.2990222,8.07417062 25.8427259,7.61777251 25.8427259,7.05521327 C25.8427259,6.49241706 26.2990222,6.03625592 26.8619852,6.03625592" id="Fill-68" fill="#E6763A" mask="url(#mask-2)"></path>
                    <path d="M26.8619852,9.25900474 C27.4249481,9.25900474 27.8812444,9.71516588 27.8812444,10.2779621 C27.8812444,10.8405213 27.4249481,11.2969194 26.8619852,11.2969194 C26.2990222,11.2969194 25.8427259,10.8405213 25.8427259,10.2779621 C25.8427259,9.71516588 26.2990222,9.25900474 26.8619852,9.25900474" id="Fill-69" fill="#E6763A" mask="url(#mask-2)"></path>
                    <path d="M26.8619852,12.4817536 C27.4249481,12.4817536 27.8812444,12.9379147 27.8812444,13.5007109 C27.8812444,14.0632701 27.4249481,14.5196682 26.8619852,14.5196682 C26.2990222,14.5196682 25.8427259,14.0632701 25.8427259,13.5007109 C25.8427259,12.9379147 26.2990222,12.4817536 26.8619852,12.4817536" id="Fill-70" fill="#E6763A" mask="url(#mask-2)"></path>
                    <path d="M26.8619852,15.7045024 C27.4249481,15.7045024 27.8812444,16.1606635 27.8812444,16.7234597 C27.8812444,17.286019 27.4249481,17.7424171 26.8619852,17.7424171 C26.2990222,17.7424171 25.8427259,17.286019 25.8427259,16.7234597 C25.8427259,16.1606635 26.2990222,15.7045024 26.8619852,15.7045024" id="Fill-71" fill="#E6763A" mask="url(#mask-2)"></path>
                    <path d="M26.8619852,18.9509479 C27.4249481,18.9509479 27.8812444,19.407109 27.8812444,19.9699052 C27.8812444,20.5324645 27.4249481,20.9888626 26.8619852,20.9888626 C26.2990222,20.9888626 25.8427259,20.5324645 25.8427259,19.9699052 C25.8427259,19.407109 26.2990222,18.9509479 26.8619852,18.9509479" id="Fill-72" fill="#E6763A" mask="url(#mask-2)"></path>
                    <path d="M26.8619852,22.1736967 C27.4249481,22.1736967 27.8812444,22.6298578 27.8812444,23.192654 C27.8812444,23.7552133 27.4249481,24.2116114 26.8619852,24.2116114 C26.2990222,24.2116114 25.8427259,23.7552133 25.8427259,23.192654 C25.8427259,22.6298578 26.2990222,22.1736967 26.8619852,22.1736967" id="Fill-73" fill="#E6763A" mask="url(#mask-2)"></path>
                    <path d="M26.8619852,25.3964455 C27.4249481,25.3964455 27.8812444,25.8526066 27.8812444,26.4154028 C27.8812444,26.9781991 27.4249481,27.4343602 26.8619852,27.4343602 C26.2990222,27.4343602 25.8427259,26.9781991 25.8427259,26.4154028 C25.8427259,25.8526066 26.2990222,25.3964455 26.8619852,25.3964455" id="Fill-74" fill="#E6763A" mask="url(#mask-2)"></path>
                    <path d="M26.8619852,28.6191943 C27.4249481,28.6191943 27.8812444,29.0753555 27.8812444,29.6381517 C27.8812444,30.2009479 27.4249481,30.657109 26.8619852,30.657109 C26.2990222,30.657109 25.8427259,30.2009479 25.8427259,29.6381517 C25.8427259,29.0753555 26.2990222,28.6191943 26.8619852,28.6191943" id="Fill-75" fill="#E6763A" mask="url(#mask-2)"></path>
                    <path d="M26.8619852,31.8419431 C27.4249481,31.8419431 27.8812444,32.2981043 27.8812444,32.8609005 C27.8812444,33.4236967 27.4249481,33.8798578 26.8619852,33.8798578 C26.2990222,33.8798578 25.8427259,33.4236967 25.8427259,32.8609005 C25.8427259,32.2981043 26.2990222,31.8419431 26.8619852,31.8419431" id="Fill-76" fill="#E6763A" mask="url(#mask-2)"></path>
                    <path d="M26.8619852,35.0646919 C27.4249481,35.0646919 27.8812444,35.5208531 27.8812444,36.0836493 C27.8812444,36.6464455 27.4249481,37.1026066 26.8619852,37.1026066 C26.2990222,37.1026066 25.8427259,36.6464455 25.8427259,36.0836493 C25.8427259,35.5208531 26.2990222,35.0646919 26.8619852,35.0646919" id="Fill-77" fill="#E6763A" mask="url(#mask-2)"></path>
                    <path d="M26.8619852,38.2874408 C27.4249481,38.2874408 27.8812444,38.7436019 27.8812444,39.3063981 C27.8812444,39.8691943 27.4249481,40.3253555 26.8619852,40.3253555 C26.2990222,40.3253555 25.8427259,39.8691943 25.8427259,39.3063981 C25.8427259,38.7436019 26.2990222,38.2874408 26.8619852,38.2874408" id="Fill-78" fill="#E6763A" mask="url(#mask-2)"></path>
                    <path d="M26.8619852,41.5101896 C27.4249481,41.5101896 27.8812444,41.9663507 27.8812444,42.5291469 C27.8812444,43.0919431 27.4249481,43.5481043 26.8619852,43.5481043 C26.2990222,43.5481043 25.8427259,43.0919431 25.8427259,42.5291469 C25.8427259,41.9663507 26.2990222,41.5101896 26.8619852,41.5101896" id="Fill-79" fill="#E6763A" mask="url(#mask-2)"></path>
                    <path d="M26.8619852,44.7329384 C27.4249481,44.7329384 27.8812444,45.1890995 27.8812444,45.7518957 C27.8812444,46.3146919 27.4249481,46.7708531 26.8619852,46.7708531 C26.2990222,46.7708531 25.8427259,46.3146919 25.8427259,45.7518957 C25.8427259,45.1890995 26.2990222,44.7329384 26.8619852,44.7329384" id="Fill-80" fill="#E6763A" mask="url(#mask-2)"></path>
                    <path d="M26.8619852,47.9556872 C27.4249481,47.9556872 27.8812444,48.4118483 27.8812444,48.9746445 C27.8812444,49.5374408 27.4249481,49.9936019 26.8619852,49.9936019 C26.2990222,49.9936019 25.8427259,49.5374408 25.8427259,48.9746445 C25.8427259,48.4118483 26.2990222,47.9556872 26.8619852,47.9556872" id="Fill-81" fill="#E6763A" mask="url(#mask-2)"></path>
                    <path d="M23.1879111,-0.409241706 C23.7508741,-0.409241706 24.2071704,0.0469194313 24.2071704,0.60971564 C24.2071704,1.17251185 23.7508741,1.62867299 23.1879111,1.62867299 C22.6249481,1.62867299 22.1686519,1.17251185 22.1686519,0.60971564 C22.1686519,0.0469194313 22.6249481,-0.409241706 23.1879111,-0.409241706" id="Fill-82" fill="#E6763A" mask="url(#mask-2)"></path>
                    <path d="M23.1879111,2.81350711 C23.7508741,2.81350711 24.2071704,3.26966825 24.2071704,3.83246445 C24.2071704,4.3950237 23.7508741,4.8514218 23.1879111,4.8514218 C22.6249481,4.8514218 22.1686519,4.3950237 22.1686519,3.83246445 C22.1686519,3.26966825 22.6249481,2.81350711 23.1879111,2.81350711" id="Fill-83" fill="#E6763A" mask="url(#mask-2)"></path>
                    <path d="M23.1879111,6.03625592 C23.7508741,6.03625592 24.2071704,6.49241706 24.2071704,7.05521327 C24.2071704,7.61777251 23.7508741,8.07417062 23.1879111,8.07417062 C22.6249481,8.07417062 22.1686519,7.61777251 22.1686519,7.05521327 C22.1686519,6.49241706 22.6249481,6.03625592 23.1879111,6.03625592" id="Fill-84" fill="#E6763A" mask="url(#mask-2)"></path>
                    <path d="M23.1879111,9.25900474 C23.7508741,9.25900474 24.2071704,9.71516588 24.2071704,10.2779621 C24.2071704,10.8405213 23.7508741,11.2969194 23.1879111,11.2969194 C22.6249481,11.2969194 22.1686519,10.8405213 22.1686519,10.2779621 C22.1686519,9.71516588 22.6249481,9.25900474 23.1879111,9.25900474" id="Fill-85" fill="#E6763A" mask="url(#mask-2)"></path>
                    <path d="M23.1879111,12.4817536 C23.7508741,12.4817536 24.2071704,12.9379147 24.2071704,13.5007109 C24.2071704,14.0632701 23.7508741,14.5196682 23.1879111,14.5196682 C22.6249481,14.5196682 22.1686519,14.0632701 22.1686519,13.5007109 C22.1686519,12.9379147 22.6249481,12.4817536 23.1879111,12.4817536" id="Fill-86" fill="#E6763A" mask="url(#mask-2)"></path>
                    <path d="M23.1879111,15.7045024 C23.7508741,15.7045024 24.2071704,16.1606635 24.2071704,16.7234597 C24.2071704,17.286019 23.7508741,17.7424171 23.1879111,17.7424171 C22.6249481,17.7424171 22.1686519,17.286019 22.1686519,16.7234597 C22.1686519,16.1606635 22.6249481,15.7045024 23.1879111,15.7045024" id="Fill-87" fill="#E6763A" mask="url(#mask-2)"></path>
                    <path d="M23.1879111,18.9509479 C23.7508741,18.9509479 24.2071704,19.407109 24.2071704,19.9699052 C24.2071704,20.5324645 23.7508741,20.9888626 23.1879111,20.9888626 C22.6249481,20.9888626 22.1686519,20.5324645 22.1686519,19.9699052 C22.1686519,19.407109 22.6249481,18.9509479 23.1879111,18.9509479" id="Fill-88" fill="#E6763A" mask="url(#mask-2)"></path>
                    <path d="M23.1879111,22.1736967 C23.7508741,22.1736967 24.2071704,22.6298578 24.2071704,23.192654 C24.2071704,23.7552133 23.7508741,24.2116114 23.1879111,24.2116114 C22.6249481,24.2116114 22.1686519,23.7552133 22.1686519,23.192654 C22.1686519,22.6298578 22.6249481,22.1736967 23.1879111,22.1736967" id="Fill-89" fill="#E6763A" mask="url(#mask-2)"></path>
                    <path d="M23.1879111,25.3964455 C23.7508741,25.3964455 24.2071704,25.8526066 24.2071704,26.4154028 C24.2071704,26.9781991 23.7508741,27.4343602 23.1879111,27.4343602 C22.6249481,27.4343602 22.1686519,26.9781991 22.1686519,26.4154028 C22.1686519,25.8526066 22.6249481,25.3964455 23.1879111,25.3964455" id="Fill-90" fill="#E6763A" mask="url(#mask-2)"></path>
                    <path d="M23.1879111,28.6191943 C23.7508741,28.6191943 24.2071704,29.0753555 24.2071704,29.6381517 C24.2071704,30.2009479 23.7508741,30.657109 23.1879111,30.657109 C22.6249481,30.657109 22.1686519,30.2009479 22.1686519,29.6381517 C22.1686519,29.0753555 22.6249481,28.6191943 23.1879111,28.6191943" id="Fill-91" fill="#E6763A" mask="url(#mask-2)"></path>
                    <path d="M23.1879111,31.8419431 C23.7508741,31.8419431 24.2071704,32.2981043 24.2071704,32.8609005 C24.2071704,33.4236967 23.7508741,33.8798578 23.1879111,33.8798578 C22.6249481,33.8798578 22.1686519,33.4236967 22.1686519,32.8609005 C22.1686519,32.2981043 22.6249481,31.8419431 23.1879111,31.8419431" id="Fill-92" fill="#E6763A" mask="url(#mask-2)"></path>
                    <path d="M23.1879111,35.0646919 C23.7508741,35.0646919 24.2071704,35.5208531 24.2071704,36.0836493 C24.2071704,36.6464455 23.7508741,37.1026066 23.1879111,37.1026066 C22.6249481,37.1026066 22.1686519,36.6464455 22.1686519,36.0836493 C22.1686519,35.5208531 22.6249481,35.0646919 23.1879111,35.0646919" id="Fill-93" fill="#E6763A" mask="url(#mask-2)"></path>
                    <path d="M23.1879111,38.2874408 C23.7508741,38.2874408 24.2071704,38.7436019 24.2071704,39.3063981 C24.2071704,39.8691943 23.7508741,40.3253555 23.1879111,40.3253555 C22.6249481,40.3253555 22.1686519,39.8691943 22.1686519,39.3063981 C22.1686519,38.7436019 22.6249481,38.2874408 23.1879111,38.2874408" id="Fill-94" fill="#E6763A" mask="url(#mask-2)"></path>
                    <path d="M23.1879111,41.5101896 C23.7508741,41.5101896 24.2071704,41.9663507 24.2071704,42.5291469 C24.2071704,43.0919431 23.7508741,43.5481043 23.1879111,43.5481043 C22.6249481,43.5481043 22.1686519,43.0919431 22.1686519,42.5291469 C22.1686519,41.9663507 22.6249481,41.5101896 23.1879111,41.5101896" id="Fill-95" fill="#E6763A" mask="url(#mask-2)"></path>
                    <path d="M23.1879111,44.7329384 C23.7508741,44.7329384 24.2071704,45.1890995 24.2071704,45.7518957 C24.2071704,46.3146919 23.7508741,46.7708531 23.1879111,46.7708531 C22.6249481,46.7708531 22.1686519,46.3146919 22.1686519,45.7518957 C22.1686519,45.1890995 22.6249481,44.7329384 23.1879111,44.7329384" id="Fill-96" fill="#E6763A" mask="url(#mask-2)"></path>
                    <path d="M23.1879111,47.9556872 C23.7508741,47.9556872 24.2071704,48.4118483 24.2071704,48.9746445 C24.2071704,49.5374408 23.7508741,49.9936019 23.1879111,49.9936019 C22.6249481,49.9936019 22.1686519,49.5374408 22.1686519,48.9746445 C22.1686519,48.4118483 22.6249481,47.9556872 23.1879111,47.9556872" id="Fill-97" fill="#E6763A" mask="url(#mask-2)"></path>
                    <path d="M19.513837,-0.409241706 C20.0768,-0.409241706 20.5330963,0.0469194313 20.5330963,0.60971564 C20.5330963,1.17251185 20.0768,1.62867299 19.513837,1.62867299 C18.9508741,1.62867299 18.4945778,1.17251185 18.4945778,0.60971564 C18.4945778,0.0469194313 18.9508741,-0.409241706 19.513837,-0.409241706" id="Fill-98" fill="#E6763A" mask="url(#mask-2)"></path>
                    <path d="M19.513837,2.81350711 C20.0768,2.81350711 20.5330963,3.26966825 20.5330963,3.83246445 C20.5330963,4.3950237 20.0768,4.8514218 19.513837,4.8514218 C18.9508741,4.8514218 18.4945778,4.3950237 18.4945778,3.83246445 C18.4945778,3.26966825 18.9508741,2.81350711 19.513837,2.81350711" id="Fill-99" fill="#E6763A" mask="url(#mask-2)"></path>
                    <path d="M19.513837,6.03625592 C20.0768,6.03625592 20.5330963,6.49241706 20.5330963,7.05521327 C20.5330963,7.61777251 20.0768,8.07417062 19.513837,8.07417062 C18.9508741,8.07417062 18.4945778,7.61777251 18.4945778,7.05521327 C18.4945778,6.49241706 18.9508741,6.03625592 19.513837,6.03625592" id="Fill-100" fill="#E6763A" mask="url(#mask-2)"></path>
                    <path d="M19.513837,9.25900474 C20.0768,9.25900474 20.5330963,9.71516588 20.5330963,10.2779621 C20.5330963,10.8405213 20.0768,11.2969194 19.513837,11.2969194 C18.9508741,11.2969194 18.4945778,10.8405213 18.4945778,10.2779621 C18.4945778,9.71516588 18.9508741,9.25900474 19.513837,9.25900474" id="Fill-101" fill="#E6763A" mask="url(#mask-2)"></path>
                    <path d="M19.513837,12.4817536 C20.0768,12.4817536 20.5330963,12.9379147 20.5330963,13.5007109 C20.5330963,14.0632701 20.0768,14.5196682 19.513837,14.5196682 C18.9508741,14.5196682 18.4945778,14.0632701 18.4945778,13.5007109 C18.4945778,12.9379147 18.9508741,12.4817536 19.513837,12.4817536" id="Fill-102" fill="#E6763A" mask="url(#mask-2)"></path>
                    <path d="M19.513837,15.7045024 C20.0768,15.7045024 20.5330963,16.1606635 20.5330963,16.7234597 C20.5330963,17.286019 20.0768,17.7424171 19.513837,17.7424171 C18.9508741,17.7424171 18.4945778,17.286019 18.4945778,16.7234597 C18.4945778,16.1606635 18.9508741,15.7045024 19.513837,15.7045024" id="Fill-103" fill="#E6763A" mask="url(#mask-2)"></path>
                    <path d="M19.513837,18.9509479 C20.0768,18.9509479 20.5330963,19.407109 20.5330963,19.9699052 C20.5330963,20.5324645 20.0768,20.9888626 19.513837,20.9888626 C18.9508741,20.9888626 18.4945778,20.5324645 18.4945778,19.9699052 C18.4945778,19.407109 18.9508741,18.9509479 19.513837,18.9509479" id="Fill-104" fill="#E6763A" mask="url(#mask-2)"></path>
                    <path d="M19.513837,22.1736967 C20.0768,22.1736967 20.5330963,22.6298578 20.5330963,23.192654 C20.5330963,23.7552133 20.0768,24.2116114 19.513837,24.2116114 C18.9508741,24.2116114 18.4945778,23.7552133 18.4945778,23.192654 C18.4945778,22.6298578 18.9508741,22.1736967 19.513837,22.1736967" id="Fill-105" fill="#E6763A" mask="url(#mask-2)"></path>
                    <path d="M19.513837,25.3964455 C20.0768,25.3964455 20.5330963,25.8526066 20.5330963,26.4154028 C20.5330963,26.9781991 20.0768,27.4343602 19.513837,27.4343602 C18.9508741,27.4343602 18.4945778,26.9781991 18.4945778,26.4154028 C18.4945778,25.8526066 18.9508741,25.3964455 19.513837,25.3964455" id="Fill-106" fill="#E6763A" mask="url(#mask-2)"></path>
                    <path d="M19.513837,28.6191943 C20.0768,28.6191943 20.5330963,29.0753555 20.5330963,29.6381517 C20.5330963,30.2009479 20.0768,30.657109 19.513837,30.657109 C18.9508741,30.657109 18.4945778,30.2009479 18.4945778,29.6381517 C18.4945778,29.0753555 18.9508741,28.6191943 19.513837,28.6191943" id="Fill-107" fill="#E6763A" mask="url(#mask-2)"></path>
                    <path d="M19.513837,31.8419431 C20.0768,31.8419431 20.5330963,32.2981043 20.5330963,32.8609005 C20.5330963,33.4236967 20.0768,33.8798578 19.513837,33.8798578 C18.9508741,33.8798578 18.4945778,33.4236967 18.4945778,32.8609005 C18.4945778,32.2981043 18.9508741,31.8419431 19.513837,31.8419431" id="Fill-108" fill="#E6763A" mask="url(#mask-2)"></path>
                    <path d="M19.513837,35.0646919 C20.0768,35.0646919 20.5330963,35.5208531 20.5330963,36.0836493 C20.5330963,36.6464455 20.0768,37.1026066 19.513837,37.1026066 C18.9508741,37.1026066 18.4945778,36.6464455 18.4945778,36.0836493 C18.4945778,35.5208531 18.9508741,35.0646919 19.513837,35.0646919" id="Fill-109" fill="#E6763A" mask="url(#mask-2)"></path>
                    <path d="M19.513837,38.2874408 C20.0768,38.2874408 20.5330963,38.7436019 20.5330963,39.3063981 C20.5330963,39.8691943 20.0768,40.3253555 19.513837,40.3253555 C18.9508741,40.3253555 18.4945778,39.8691943 18.4945778,39.3063981 C18.4945778,38.7436019 18.9508741,38.2874408 19.513837,38.2874408" id="Fill-110" fill="#E6763A" mask="url(#mask-2)"></path>
                    <path d="M19.513837,41.5101896 C20.0768,41.5101896 20.5330963,41.9663507 20.5330963,42.5291469 C20.5330963,43.0919431 20.0768,43.5481043 19.513837,43.5481043 C18.9508741,43.5481043 18.4945778,43.0919431 18.4945778,42.5291469 C18.4945778,41.9663507 18.9508741,41.5101896 19.513837,41.5101896" id="Fill-111" fill="#E6763A" mask="url(#mask-2)"></path>
                    <path d="M19.513837,44.7329384 C20.0768,44.7329384 20.5330963,45.1890995 20.5330963,45.7518957 C20.5330963,46.3146919 20.0768,46.7708531 19.513837,46.7708531 C18.9508741,46.7708531 18.4945778,46.3146919 18.4945778,45.7518957 C18.4945778,45.1890995 18.9508741,44.7329384 19.513837,44.7329384" id="Fill-112" fill="#E6763A" mask="url(#mask-2)"></path>
                    <path d="M19.513837,47.9556872 C20.0768,47.9556872 20.5330963,48.4118483 20.5330963,48.9746445 C20.5330963,49.5374408 20.0768,49.9936019 19.513837,49.9936019 C18.9508741,49.9936019 18.4945778,49.5374408 18.4945778,48.9746445 C18.4945778,48.4118483 18.9508741,47.9556872 19.513837,47.9556872" id="Fill-113" fill="#E6763A" mask="url(#mask-2)"></path>
                    <path d="M15.839763,-0.409241706 C16.4027259,-0.409241706 16.8590222,0.0469194313 16.8590222,0.60971564 C16.8590222,1.17251185 16.4027259,1.62867299 15.839763,1.62867299 C15.2768,1.62867299 14.8205037,1.17251185 14.8205037,0.60971564 C14.8205037,0.0469194313 15.2768,-0.409241706 15.839763,-0.409241706" id="Fill-114" fill="#E6763A" mask="url(#mask-2)"></path>
                    <path d="M15.839763,2.81350711 C16.4027259,2.81350711 16.8590222,3.26966825 16.8590222,3.83246445 C16.8590222,4.3950237 16.4027259,4.8514218 15.839763,4.8514218 C15.2768,4.8514218 14.8205037,4.3950237 14.8205037,3.83246445 C14.8205037,3.26966825 15.2768,2.81350711 15.839763,2.81350711" id="Fill-115" fill="#E6763A" mask="url(#mask-2)"></path>
                    <path d="M15.839763,6.03625592 C16.4027259,6.03625592 16.8590222,6.49241706 16.8590222,7.05521327 C16.8590222,7.61777251 16.4027259,8.07417062 15.839763,8.07417062 C15.2768,8.07417062 14.8205037,7.61777251 14.8205037,7.05521327 C14.8205037,6.49241706 15.2768,6.03625592 15.839763,6.03625592" id="Fill-116" fill="#E6763A" mask="url(#mask-2)"></path>
                    <path d="M15.839763,9.25900474 C16.4027259,9.25900474 16.8590222,9.71516588 16.8590222,10.2779621 C16.8590222,10.8405213 16.4027259,11.2969194 15.839763,11.2969194 C15.2768,11.2969194 14.8205037,10.8405213 14.8205037,10.2779621 C14.8205037,9.71516588 15.2768,9.25900474 15.839763,9.25900474" id="Fill-117" fill="#E6763A" mask="url(#mask-2)"></path>
                    <path d="M15.839763,12.4817536 C16.4027259,12.4817536 16.8590222,12.9379147 16.8590222,13.5007109 C16.8590222,14.0632701 16.4027259,14.5196682 15.839763,14.5196682 C15.2768,14.5196682 14.8205037,14.0632701 14.8205037,13.5007109 C14.8205037,12.9379147 15.2768,12.4817536 15.839763,12.4817536" id="Fill-118" fill="#E6763A" mask="url(#mask-2)"></path>
                    <path d="M15.839763,15.7045024 C16.4027259,15.7045024 16.8590222,16.1606635 16.8590222,16.7234597 C16.8590222,17.286019 16.4027259,17.7424171 15.839763,17.7424171 C15.2768,17.7424171 14.8205037,17.286019 14.8205037,16.7234597 C14.8205037,16.1606635 15.2768,15.7045024 15.839763,15.7045024" id="Fill-119" fill="#E6763A" mask="url(#mask-2)"></path>
                    <path d="M15.839763,18.9509479 C16.4027259,18.9509479 16.8590222,19.407109 16.8590222,19.9699052 C16.8590222,20.5324645 16.4027259,20.9888626 15.839763,20.9888626 C15.2768,20.9888626 14.8205037,20.5324645 14.8205037,19.9699052 C14.8205037,19.407109 15.2768,18.9509479 15.839763,18.9509479" id="Fill-120" fill="#E6763A" mask="url(#mask-2)"></path>
                    <path d="M15.839763,22.1736967 C16.4027259,22.1736967 16.8590222,22.6298578 16.8590222,23.192654 C16.8590222,23.7552133 16.4027259,24.2116114 15.839763,24.2116114 C15.2768,24.2116114 14.8205037,23.7552133 14.8205037,23.192654 C14.8205037,22.6298578 15.2768,22.1736967 15.839763,22.1736967" id="Fill-121" fill="#E6763A" mask="url(#mask-2)"></path>
                    <path d="M15.839763,25.3964455 C16.4027259,25.3964455 16.8590222,25.8526066 16.8590222,26.4154028 C16.8590222,26.9781991 16.4027259,27.4343602 15.839763,27.4343602 C15.2768,27.4343602 14.8205037,26.9781991 14.8205037,26.4154028 C14.8205037,25.8526066 15.2768,25.3964455 15.839763,25.3964455" id="Fill-122" fill="#E6763A" mask="url(#mask-2)"></path>
                    <path d="M15.839763,28.6191943 C16.4027259,28.6191943 16.8590222,29.0753555 16.8590222,29.6381517 C16.8590222,30.2009479 16.4027259,30.657109 15.839763,30.657109 C15.2768,30.657109 14.8205037,30.2009479 14.8205037,29.6381517 C14.8205037,29.0753555 15.2768,28.6191943 15.839763,28.6191943" id="Fill-123" fill="#E6763A" mask="url(#mask-2)"></path>
                    <path d="M15.839763,31.8419431 C16.4027259,31.8419431 16.8590222,32.2981043 16.8590222,32.8609005 C16.8590222,33.4236967 16.4027259,33.8798578 15.839763,33.8798578 C15.2768,33.8798578 14.8205037,33.4236967 14.8205037,32.8609005 C14.8205037,32.2981043 15.2768,31.8419431 15.839763,31.8419431" id="Fill-124" fill="#E6763A" mask="url(#mask-2)"></path>
                    <path d="M15.839763,35.0646919 C16.4027259,35.0646919 16.8590222,35.5208531 16.8590222,36.0836493 C16.8590222,36.6464455 16.4027259,37.1026066 15.839763,37.1026066 C15.2768,37.1026066 14.8205037,36.6464455 14.8205037,36.0836493 C14.8205037,35.5208531 15.2768,35.0646919 15.839763,35.0646919" id="Fill-125" fill="#E6763A" mask="url(#mask-2)"></path>
                    <path d="M15.839763,38.2874408 C16.4027259,38.2874408 16.8590222,38.7436019 16.8590222,39.3063981 C16.8590222,39.8691943 16.4027259,40.3253555 15.839763,40.3253555 C15.2768,40.3253555 14.8205037,39.8691943 14.8205037,39.3063981 C14.8205037,38.7436019 15.2768,38.2874408 15.839763,38.2874408" id="Fill-126" fill="#E6763A" mask="url(#mask-2)"></path>
                    <path d="M15.839763,41.5101896 C16.4027259,41.5101896 16.8590222,41.9663507 16.8590222,42.5291469 C16.8590222,43.0919431 16.4027259,43.5481043 15.839763,43.5481043 C15.2768,43.5481043 14.8205037,43.0919431 14.8205037,42.5291469 C14.8205037,41.9663507 15.2768,41.5101896 15.839763,41.5101896" id="Fill-127" fill="#E6763A" mask="url(#mask-2)"></path>
                    <path d="M15.839763,44.7329384 C16.4027259,44.7329384 16.8590222,45.1890995 16.8590222,45.7518957 C16.8590222,46.3146919 16.4027259,46.7708531 15.839763,46.7708531 C15.2768,46.7708531 14.8205037,46.3146919 14.8205037,45.7518957 C14.8205037,45.1890995 15.2768,44.7329384 15.839763,44.7329384" id="Fill-128" fill="#E6763A" mask="url(#mask-2)"></path>
                    <path d="M15.839763,47.9556872 C16.4027259,47.9556872 16.8590222,48.4118483 16.8590222,48.9746445 C16.8590222,49.5374408 16.4027259,49.9936019 15.839763,49.9936019 C15.2768,49.9936019 14.8205037,49.5374408 14.8205037,48.9746445 C14.8205037,48.4118483 15.2768,47.9556872 15.839763,47.9556872" id="Fill-129" fill="#E6763A" mask="url(#mask-2)"></path>
                    <path d="M12.1656889,-0.409241706 C12.7286519,-0.409241706 13.1849481,0.0469194313 13.1849481,0.60971564 C13.1849481,1.17251185 12.7286519,1.62867299 12.1656889,1.62867299 C11.6027259,1.62867299 11.1464296,1.17251185 11.1464296,0.60971564 C11.1464296,0.0469194313 11.6027259,-0.409241706 12.1656889,-0.409241706" id="Fill-130" fill="#E6763A" mask="url(#mask-2)"></path>
                    <path d="M12.1656889,2.81350711 C12.7286519,2.81350711 13.1849481,3.26966825 13.1849481,3.83246445 C13.1849481,4.3950237 12.7286519,4.8514218 12.1656889,4.8514218 C11.6027259,4.8514218 11.1464296,4.3950237 11.1464296,3.83246445 C11.1464296,3.26966825 11.6027259,2.81350711 12.1656889,2.81350711" id="Fill-131" fill="#E6763A" mask="url(#mask-2)"></path>
                    <path d="M12.1656889,6.03625592 C12.7286519,6.03625592 13.1849481,6.49241706 13.1849481,7.05521327 C13.1849481,7.61777251 12.7286519,8.07417062 12.1656889,8.07417062 C11.6027259,8.07417062 11.1464296,7.61777251 11.1464296,7.05521327 C11.1464296,6.49241706 11.6027259,6.03625592 12.1656889,6.03625592" id="Fill-132" fill="#E6763A" mask="url(#mask-2)"></path>
                    <path d="M12.1656889,9.25900474 C12.7286519,9.25900474 13.1849481,9.71516588 13.1849481,10.2779621 C13.1849481,10.8405213 12.7286519,11.2969194 12.1656889,11.2969194 C11.6027259,11.2969194 11.1464296,10.8405213 11.1464296,10.2779621 C11.1464296,9.71516588 11.6027259,9.25900474 12.1656889,9.25900474" id="Fill-133" fill="#E6763A" mask="url(#mask-2)"></path>
                    <path d="M12.1656889,12.4817536 C12.7286519,12.4817536 13.1849481,12.9379147 13.1849481,13.5007109 C13.1849481,14.0632701 12.7286519,14.5196682 12.1656889,14.5196682 C11.6027259,14.5196682 11.1464296,14.0632701 11.1464296,13.5007109 C11.1464296,12.9379147 11.6027259,12.4817536 12.1656889,12.4817536" id="Fill-134" fill="#E6763A" mask="url(#mask-2)"></path>
                    <path d="M12.1656889,15.7045024 C12.7286519,15.7045024 13.1849481,16.1606635 13.1849481,16.7234597 C13.1849481,17.286019 12.7286519,17.7424171 12.1656889,17.7424171 C11.6027259,17.7424171 11.1464296,17.286019 11.1464296,16.7234597 C11.1464296,16.1606635 11.6027259,15.7045024 12.1656889,15.7045024" id="Fill-135" fill="#E6763A" mask="url(#mask-2)"></path>
                    <path d="M12.1656889,18.9509479 C12.7286519,18.9509479 13.1849481,19.407109 13.1849481,19.9699052 C13.1849481,20.5324645 12.7286519,20.9888626 12.1656889,20.9888626 C11.6027259,20.9888626 11.1464296,20.5324645 11.1464296,19.9699052 C11.1464296,19.407109 11.6027259,18.9509479 12.1656889,18.9509479" id="Fill-136" fill="#E6763A" mask="url(#mask-2)"></path>
                    <path d="M12.1656889,22.1736967 C12.7286519,22.1736967 13.1849481,22.6298578 13.1849481,23.192654 C13.1849481,23.7552133 12.7286519,24.2116114 12.1656889,24.2116114 C11.6027259,24.2116114 11.1464296,23.7552133 11.1464296,23.192654 C11.1464296,22.6298578 11.6027259,22.1736967 12.1656889,22.1736967" id="Fill-137" fill="#E6763A" mask="url(#mask-2)"></path>
                    <path d="M12.1656889,25.3964455 C12.7286519,25.3964455 13.1849481,25.8526066 13.1849481,26.4154028 C13.1849481,26.9781991 12.7286519,27.4343602 12.1656889,27.4343602 C11.6027259,27.4343602 11.1464296,26.9781991 11.1464296,26.4154028 C11.1464296,25.8526066 11.6027259,25.3964455 12.1656889,25.3964455" id="Fill-138" fill="#E6763A" mask="url(#mask-2)"></path>
                    <path d="M12.1656889,28.6191943 C12.7286519,28.6191943 13.1849481,29.0753555 13.1849481,29.6381517 C13.1849481,30.2009479 12.7286519,30.657109 12.1656889,30.657109 C11.6027259,30.657109 11.1464296,30.2009479 11.1464296,29.6381517 C11.1464296,29.0753555 11.6027259,28.6191943 12.1656889,28.6191943" id="Fill-139" fill="#E6763A" mask="url(#mask-2)"></path>
                    <path d="M12.1656889,31.8419431 C12.7286519,31.8419431 13.1849481,32.2981043 13.1849481,32.8609005 C13.1849481,33.4236967 12.7286519,33.8798578 12.1656889,33.8798578 C11.6027259,33.8798578 11.1464296,33.4236967 11.1464296,32.8609005 C11.1464296,32.2981043 11.6027259,31.8419431 12.1656889,31.8419431" id="Fill-140" fill="#E6763A" mask="url(#mask-2)"></path>
                    <path d="M12.1656889,35.0646919 C12.7286519,35.0646919 13.1849481,35.5208531 13.1849481,36.0836493 C13.1849481,36.6464455 12.7286519,37.1026066 12.1656889,37.1026066 C11.6027259,37.1026066 11.1464296,36.6464455 11.1464296,36.0836493 C11.1464296,35.5208531 11.6027259,35.0646919 12.1656889,35.0646919" id="Fill-141" fill="#E6763A" mask="url(#mask-2)"></path>
                    <path d="M12.1656889,38.2874408 C12.7286519,38.2874408 13.1849481,38.7436019 13.1849481,39.3063981 C13.1849481,39.8691943 12.7286519,40.3253555 12.1656889,40.3253555 C11.6027259,40.3253555 11.1464296,39.8691943 11.1464296,39.3063981 C11.1464296,38.7436019 11.6027259,38.2874408 12.1656889,38.2874408" id="Fill-142" fill="#E6763A" mask="url(#mask-2)"></path>
                    <path d="M12.1656889,41.5101896 C12.7286519,41.5101896 13.1849481,41.9663507 13.1849481,42.5291469 C13.1849481,43.0919431 12.7286519,43.5481043 12.1656889,43.5481043 C11.6027259,43.5481043 11.1464296,43.0919431 11.1464296,42.5291469 C11.1464296,41.9663507 11.6027259,41.5101896 12.1656889,41.5101896" id="Fill-143" fill="#E6763A" mask="url(#mask-2)"></path>
                    <path d="M12.1656889,44.7329384 C12.7286519,44.7329384 13.1849481,45.1890995 13.1849481,45.7518957 C13.1849481,46.3146919 12.7286519,46.7708531 12.1656889,46.7708531 C11.6027259,46.7708531 11.1464296,46.3146919 11.1464296,45.7518957 C11.1464296,45.1890995 11.6027259,44.7329384 12.1656889,44.7329384" id="Fill-144" fill="#E6763A" mask="url(#mask-2)"></path>
                    <path d="M12.1656889,47.9556872 C12.7286519,47.9556872 13.1849481,48.4118483 13.1849481,48.9746445 C13.1849481,49.5374408 12.7286519,49.9936019 12.1656889,49.9936019 C11.6027259,49.9936019 11.1464296,49.5374408 11.1464296,48.9746445 C11.1464296,48.4118483 11.6027259,47.9556872 12.1656889,47.9556872" id="Fill-145" fill="#E6763A" mask="url(#mask-2)"></path>
                    <path d="M8.49161481,-0.409241706 C9.05457778,-0.409241706 9.51087407,0.0469194313 9.51087407,0.60971564 C9.51087407,1.17251185 9.05457778,1.62867299 8.49161481,1.62867299 C7.92865185,1.62867299 7.47235556,1.17251185 7.47235556,0.60971564 C7.47235556,0.0469194313 7.92865185,-0.409241706 8.49161481,-0.409241706" id="Fill-146" fill="#E6763A" mask="url(#mask-2)"></path>
                    <path d="M8.49161481,2.81350711 C9.05457778,2.81350711 9.51087407,3.26966825 9.51087407,3.83246445 C9.51087407,4.3950237 9.05457778,4.8514218 8.49161481,4.8514218 C7.92865185,4.8514218 7.47235556,4.3950237 7.47235556,3.83246445 C7.47235556,3.26966825 7.92865185,2.81350711 8.49161481,2.81350711" id="Fill-147" fill="#E6763A" mask="url(#mask-2)"></path>
                    <path d="M8.49161481,6.03625592 C9.05457778,6.03625592 9.51087407,6.49241706 9.51087407,7.05521327 C9.51087407,7.61777251 9.05457778,8.07417062 8.49161481,8.07417062 C7.92865185,8.07417062 7.47235556,7.61777251 7.47235556,7.05521327 C7.47235556,6.49241706 7.92865185,6.03625592 8.49161481,6.03625592" id="Fill-148" fill="#E6763A" mask="url(#mask-2)"></path>
                    <path d="M8.49161481,9.25900474 C9.05457778,9.25900474 9.51087407,9.71516588 9.51087407,10.2779621 C9.51087407,10.8405213 9.05457778,11.2969194 8.49161481,11.2969194 C7.92865185,11.2969194 7.47235556,10.8405213 7.47235556,10.2779621 C7.47235556,9.71516588 7.92865185,9.25900474 8.49161481,9.25900474" id="Fill-149" fill="#E6763A" mask="url(#mask-2)"></path>
                    <path d="M8.49161481,12.4817536 C9.05457778,12.4817536 9.51087407,12.9379147 9.51087407,13.5007109 C9.51087407,14.0632701 9.05457778,14.5196682 8.49161481,14.5196682 C7.92865185,14.5196682 7.47235556,14.0632701 7.47235556,13.5007109 C7.47235556,12.9379147 7.92865185,12.4817536 8.49161481,12.4817536" id="Fill-150" fill="#E6763A" mask="url(#mask-2)"></path>
                    <path d="M8.49161481,15.7045024 C9.05457778,15.7045024 9.51087407,16.1606635 9.51087407,16.7234597 C9.51087407,17.286019 9.05457778,17.7424171 8.49161481,17.7424171 C7.92865185,17.7424171 7.47235556,17.286019 7.47235556,16.7234597 C7.47235556,16.1606635 7.92865185,15.7045024 8.49161481,15.7045024" id="Fill-151" fill="#E6763A" mask="url(#mask-2)"></path>
                    <path d="M8.49161481,18.9509479 C9.05457778,18.9509479 9.51087407,19.407109 9.51087407,19.9699052 C9.51087407,20.5324645 9.05457778,20.9888626 8.49161481,20.9888626 C7.92865185,20.9888626 7.47235556,20.5324645 7.47235556,19.9699052 C7.47235556,19.407109 7.92865185,18.9509479 8.49161481,18.9509479" id="Fill-152" fill="#E6763A" mask="url(#mask-2)"></path>
                    <path d="M8.49161481,22.1736967 C9.05457778,22.1736967 9.51087407,22.6298578 9.51087407,23.192654 C9.51087407,23.7552133 9.05457778,24.2116114 8.49161481,24.2116114 C7.92865185,24.2116114 7.47235556,23.7552133 7.47235556,23.192654 C7.47235556,22.6298578 7.92865185,22.1736967 8.49161481,22.1736967" id="Fill-153" fill="#E6763A" mask="url(#mask-2)"></path>
                    <path d="M8.49161481,25.3964455 C9.05457778,25.3964455 9.51087407,25.8526066 9.51087407,26.4154028 C9.51087407,26.9781991 9.05457778,27.4343602 8.49161481,27.4343602 C7.92865185,27.4343602 7.47235556,26.9781991 7.47235556,26.4154028 C7.47235556,25.8526066 7.92865185,25.3964455 8.49161481,25.3964455" id="Fill-154" fill="#E6763A" mask="url(#mask-2)"></path>
                    <path d="M8.49161481,28.6191943 C9.05457778,28.6191943 9.51087407,29.0753555 9.51087407,29.6381517 C9.51087407,30.2009479 9.05457778,30.657109 8.49161481,30.657109 C7.92865185,30.657109 7.47235556,30.2009479 7.47235556,29.6381517 C7.47235556,29.0753555 7.92865185,28.6191943 8.49161481,28.6191943" id="Fill-155" fill="#E6763A" mask="url(#mask-2)"></path>
                    <path d="M8.49161481,31.8419431 C9.05457778,31.8419431 9.51087407,32.2981043 9.51087407,32.8609005 C9.51087407,33.4236967 9.05457778,33.8798578 8.49161481,33.8798578 C7.92865185,33.8798578 7.47235556,33.4236967 7.47235556,32.8609005 C7.47235556,32.2981043 7.92865185,31.8419431 8.49161481,31.8419431" id="Fill-156" fill="#E6763A" mask="url(#mask-2)"></path>
                    <path d="M8.49161481,35.0646919 C9.05457778,35.0646919 9.51087407,35.5208531 9.51087407,36.0836493 C9.51087407,36.6464455 9.05457778,37.1026066 8.49161481,37.1026066 C7.92865185,37.1026066 7.47235556,36.6464455 7.47235556,36.0836493 C7.47235556,35.5208531 7.92865185,35.0646919 8.49161481,35.0646919" id="Fill-157" fill="#E6763A" mask="url(#mask-2)"></path>
                    <path d="M8.49161481,38.2874408 C9.05457778,38.2874408 9.51087407,38.7436019 9.51087407,39.3063981 C9.51087407,39.8691943 9.05457778,40.3253555 8.49161481,40.3253555 C7.92865185,40.3253555 7.47235556,39.8691943 7.47235556,39.3063981 C7.47235556,38.7436019 7.92865185,38.2874408 8.49161481,38.2874408" id="Fill-158" fill="#E6763A" mask="url(#mask-2)"></path>
                    <path d="M8.49161481,41.5101896 C9.05457778,41.5101896 9.51087407,41.9663507 9.51087407,42.5291469 C9.51087407,43.0919431 9.05457778,43.5481043 8.49161481,43.5481043 C7.92865185,43.5481043 7.47235556,43.0919431 7.47235556,42.5291469 C7.47235556,41.9663507 7.92865185,41.5101896 8.49161481,41.5101896" id="Fill-159" fill="#E6763A" mask="url(#mask-2)"></path>
                    <path d="M8.49161481,44.7329384 C9.05457778,44.7329384 9.51087407,45.1890995 9.51087407,45.7518957 C9.51087407,46.3146919 9.05457778,46.7708531 8.49161481,46.7708531 C7.92865185,46.7708531 7.47235556,46.3146919 7.47235556,45.7518957 C7.47235556,45.1890995 7.92865185,44.7329384 8.49161481,44.7329384" id="Fill-160" fill="#E6763A" mask="url(#mask-2)"></path>
                    <path d="M8.49161481,47.9556872 C9.05457778,47.9556872 9.51087407,48.4118483 9.51087407,48.9746445 C9.51087407,49.5374408 9.05457778,49.9936019 8.49161481,49.9936019 C7.92865185,49.9936019 7.47235556,49.5374408 7.47235556,48.9746445 C7.47235556,48.4118483 7.92865185,47.9556872 8.49161481,47.9556872" id="Fill-161" fill="#E6763A" mask="url(#mask-2)"></path>
                    <path d="M4.81754074,-0.409241706 C5.3805037,-0.409241706 5.8368,0.0469194313 5.8368,0.60971564 C5.8368,1.17251185 5.3805037,1.62867299 4.81754074,1.62867299 C4.25457778,1.62867299 3.79828148,1.17251185 3.79828148,0.60971564 C3.79828148,0.0469194313 4.25457778,-0.409241706 4.81754074,-0.409241706" id="Fill-162" fill="#E6763A" mask="url(#mask-2)"></path>
                    <path d="M4.81754074,2.81350711 C5.3805037,2.81350711 5.8368,3.26966825 5.8368,3.83246445 C5.8368,4.3950237 5.3805037,4.8514218 4.81754074,4.8514218 C4.25457778,4.8514218 3.79828148,4.3950237 3.79828148,3.83246445 C3.79828148,3.26966825 4.25457778,2.81350711 4.81754074,2.81350711" id="Fill-163" fill="#E6763A" mask="url(#mask-2)"></path>
                    <path d="M4.81754074,6.03625592 C5.3805037,6.03625592 5.8368,6.49241706 5.8368,7.05521327 C5.8368,7.61777251 5.3805037,8.07417062 4.81754074,8.07417062 C4.25457778,8.07417062 3.79828148,7.61777251 3.79828148,7.05521327 C3.79828148,6.49241706 4.25457778,6.03625592 4.81754074,6.03625592" id="Fill-164" fill="#E6763A" mask="url(#mask-2)"></path>
                    <path d="M4.81754074,9.25900474 C5.3805037,9.25900474 5.8368,9.71516588 5.8368,10.2779621 C5.8368,10.8405213 5.3805037,11.2969194 4.81754074,11.2969194 C4.25457778,11.2969194 3.79828148,10.8405213 3.79828148,10.2779621 C3.79828148,9.71516588 4.25457778,9.25900474 4.81754074,9.25900474" id="Fill-165" fill="#E6763A" mask="url(#mask-2)"></path>
                    <path d="M4.81754074,12.4817536 C5.3805037,12.4817536 5.8368,12.9379147 5.8368,13.5007109 C5.8368,14.0632701 5.3805037,14.5196682 4.81754074,14.5196682 C4.25457778,14.5196682 3.79828148,14.0632701 3.79828148,13.5007109 C3.79828148,12.9379147 4.25457778,12.4817536 4.81754074,12.4817536" id="Fill-166" fill="#E6763A" mask="url(#mask-2)"></path>
                    <path d="M4.81754074,15.7045024 C5.3805037,15.7045024 5.8368,16.1606635 5.8368,16.7234597 C5.8368,17.286019 5.3805037,17.7424171 4.81754074,17.7424171 C4.25457778,17.7424171 3.79828148,17.286019 3.79828148,16.7234597 C3.79828148,16.1606635 4.25457778,15.7045024 4.81754074,15.7045024" id="Fill-167" fill="#E6763A" mask="url(#mask-2)"></path>
                    <path d="M4.81754074,18.9509479 C5.3805037,18.9509479 5.8368,19.407109 5.8368,19.9699052 C5.8368,20.5324645 5.3805037,20.9888626 4.81754074,20.9888626 C4.25457778,20.9888626 3.79828148,20.5324645 3.79828148,19.9699052 C3.79828148,19.407109 4.25457778,18.9509479 4.81754074,18.9509479" id="Fill-168" fill="#E6763A" mask="url(#mask-2)"></path>
                    <path d="M4.81754074,22.1736967 C5.3805037,22.1736967 5.8368,22.6298578 5.8368,23.192654 C5.8368,23.7552133 5.3805037,24.2116114 4.81754074,24.2116114 C4.25457778,24.2116114 3.79828148,23.7552133 3.79828148,23.192654 C3.79828148,22.6298578 4.25457778,22.1736967 4.81754074,22.1736967" id="Fill-169" fill="#E6763A" mask="url(#mask-2)"></path>
                    <path d="M4.81754074,25.3964455 C5.3805037,25.3964455 5.8368,25.8526066 5.8368,26.4154028 C5.8368,26.9781991 5.3805037,27.4343602 4.81754074,27.4343602 C4.25457778,27.4343602 3.79828148,26.9781991 3.79828148,26.4154028 C3.79828148,25.8526066 4.25457778,25.3964455 4.81754074,25.3964455" id="Fill-170" fill="#E6763A" mask="url(#mask-2)"></path>
                    <path d="M4.81754074,28.6191943 C5.3805037,28.6191943 5.8368,29.0753555 5.8368,29.6381517 C5.8368,30.2009479 5.3805037,30.657109 4.81754074,30.657109 C4.25457778,30.657109 3.79828148,30.2009479 3.79828148,29.6381517 C3.79828148,29.0753555 4.25457778,28.6191943 4.81754074,28.6191943" id="Fill-171" fill="#E6763A" mask="url(#mask-2)"></path>
                    <path d="M4.81754074,31.8419431 C5.3805037,31.8419431 5.8368,32.2981043 5.8368,32.8609005 C5.8368,33.4236967 5.3805037,33.8798578 4.81754074,33.8798578 C4.25457778,33.8798578 3.79828148,33.4236967 3.79828148,32.8609005 C3.79828148,32.2981043 4.25457778,31.8419431 4.81754074,31.8419431" id="Fill-172" fill="#E6763A" mask="url(#mask-2)"></path>
                    <path d="M4.81754074,35.0646919 C5.3805037,35.0646919 5.8368,35.5208531 5.8368,36.0836493 C5.8368,36.6464455 5.3805037,37.1026066 4.81754074,37.1026066 C4.25457778,37.1026066 3.79828148,36.6464455 3.79828148,36.0836493 C3.79828148,35.5208531 4.25457778,35.0646919 4.81754074,35.0646919" id="Fill-173" fill="#E6763A" mask="url(#mask-2)"></path>
                    <path d="M4.81754074,38.2874408 C5.3805037,38.2874408 5.8368,38.7436019 5.8368,39.3063981 C5.8368,39.8691943 5.3805037,40.3253555 4.81754074,40.3253555 C4.25457778,40.3253555 3.79828148,39.8691943 3.79828148,39.3063981 C3.79828148,38.7436019 4.25457778,38.2874408 4.81754074,38.2874408" id="Fill-174" fill="#E6763A" mask="url(#mask-2)"></path>
                    <path d="M4.81754074,41.5101896 C5.3805037,41.5101896 5.8368,41.9663507 5.8368,42.5291469 C5.8368,43.0919431 5.3805037,43.5481043 4.81754074,43.5481043 C4.25457778,43.5481043 3.79828148,43.0919431 3.79828148,42.5291469 C3.79828148,41.9663507 4.25457778,41.5101896 4.81754074,41.5101896" id="Fill-175" fill="#E6763A" mask="url(#mask-2)"></path>
                    <path d="M4.81754074,44.7329384 C5.3805037,44.7329384 5.8368,45.1890995 5.8368,45.7518957 C5.8368,46.3146919 5.3805037,46.7708531 4.81754074,46.7708531 C4.25457778,46.7708531 3.79828148,46.3146919 3.79828148,45.7518957 C3.79828148,45.1890995 4.25457778,44.7329384 4.81754074,44.7329384" id="Fill-176" fill="#E6763A" mask="url(#mask-2)"></path>
                    <path d="M4.81754074,47.9556872 C5.3805037,47.9556872 5.8368,48.4118483 5.8368,48.9746445 C5.8368,49.5374408 5.3805037,49.9936019 4.81754074,49.9936019 C4.25457778,49.9936019 3.79828148,49.5374408 3.79828148,48.9746445 C3.79828148,48.4118483 4.25457778,47.9556872 4.81754074,47.9556872" id="Fill-177" fill="#E6763A" mask="url(#mask-2)"></path>
                    <path d="M1.16717037,-0.409241706 C1.73013333,-0.409241706 2.18642963,0.0469194313 2.18642963,0.60971564 C2.18642963,1.17251185 1.73013333,1.62867299 1.16717037,1.62867299 C0.604207407,1.62867299 0.147911111,1.17251185 0.147911111,0.60971564 C0.147911111,0.0469194313 0.604207407,-0.409241706 1.16717037,-0.409241706" id="Fill-178" fill="#E6763A" mask="url(#mask-2)"></path>
                    <path d="M1.16717037,2.81350711 C1.73013333,2.81350711 2.18642963,3.26966825 2.18642963,3.83246445 C2.18642963,4.3950237 1.73013333,4.8514218 1.16717037,4.8514218 C0.604207407,4.8514218 0.147911111,4.3950237 0.147911111,3.83246445 C0.147911111,3.26966825 0.604207407,2.81350711 1.16717037,2.81350711" id="Fill-179" fill="#E6763A" mask="url(#mask-2)"></path>
                    <path d="M1.16717037,6.03625592 C1.73013333,6.03625592 2.18642963,6.49241706 2.18642963,7.05521327 C2.18642963,7.61777251 1.73013333,8.07417062 1.16717037,8.07417062 C0.604207407,8.07417062 0.147911111,7.61777251 0.147911111,7.05521327 C0.147911111,6.49241706 0.604207407,6.03625592 1.16717037,6.03625592" id="Fill-180" fill="#E6763A" mask="url(#mask-2)"></path>
                    <path d="M1.16717037,9.25900474 C1.73013333,9.25900474 2.18642963,9.71516588 2.18642963,10.2779621 C2.18642963,10.8405213 1.73013333,11.2969194 1.16717037,11.2969194 C0.604207407,11.2969194 0.147911111,10.8405213 0.147911111,10.2779621 C0.147911111,9.71516588 0.604207407,9.25900474 1.16717037,9.25900474" id="Fill-181" fill="#E6763A" mask="url(#mask-2)"></path>
                    <path d="M1.16717037,12.4817536 C1.73013333,12.4817536 2.18642963,12.9379147 2.18642963,13.5007109 C2.18642963,14.0632701 1.73013333,14.5196682 1.16717037,14.5196682 C0.604207407,14.5196682 0.147911111,14.0632701 0.147911111,13.5007109 C0.147911111,12.9379147 0.604207407,12.4817536 1.16717037,12.4817536" id="Fill-182" fill="#E6763A" mask="url(#mask-2)"></path>
                    <path d="M1.16717037,15.7045024 C1.73013333,15.7045024 2.18642963,16.1606635 2.18642963,16.7234597 C2.18642963,17.286019 1.73013333,17.7424171 1.16717037,17.7424171 C0.604207407,17.7424171 0.147911111,17.286019 0.147911111,16.7234597 C0.147911111,16.1606635 0.604207407,15.7045024 1.16717037,15.7045024" id="Fill-183" fill="#E6763A" mask="url(#mask-2)"></path>
                    <path d="M1.16717037,18.9509479 C1.73013333,18.9509479 2.18642963,19.407109 2.18642963,19.9699052 C2.18642963,20.5324645 1.73013333,20.9888626 1.16717037,20.9888626 C0.604207407,20.9888626 0.147911111,20.5324645 0.147911111,19.9699052 C0.147911111,19.407109 0.604207407,18.9509479 1.16717037,18.9509479" id="Fill-184" fill="#E6763A" mask="url(#mask-2)"></path>
                    <path d="M1.16717037,22.1736967 C1.73013333,22.1736967 2.18642963,22.6298578 2.18642963,23.192654 C2.18642963,23.7552133 1.73013333,24.2116114 1.16717037,24.2116114 C0.604207407,24.2116114 0.147911111,23.7552133 0.147911111,23.192654 C0.147911111,22.6298578 0.604207407,22.1736967 1.16717037,22.1736967" id="Fill-185" fill="#E6763A" mask="url(#mask-2)"></path>
                    <path d="M1.16717037,25.3964455 C1.73013333,25.3964455 2.18642963,25.8526066 2.18642963,26.4154028 C2.18642963,26.9781991 1.73013333,27.4343602 1.16717037,27.4343602 C0.604207407,27.4343602 0.147911111,26.9781991 0.147911111,26.4154028 C0.147911111,25.8526066 0.604207407,25.3964455 1.16717037,25.3964455" id="Fill-186" fill="#E6763A" mask="url(#mask-2)"></path>
                    <path d="M1.16717037,28.6191943 C1.73013333,28.6191943 2.18642963,29.0753555 2.18642963,29.6381517 C2.18642963,30.2009479 1.73013333,30.657109 1.16717037,30.657109 C0.604207407,30.657109 0.147911111,30.2009479 0.147911111,29.6381517 C0.147911111,29.0753555 0.604207407,28.6191943 1.16717037,28.6191943" id="Fill-187" fill="#E6763A" mask="url(#mask-2)"></path>
                    <path d="M1.16717037,31.8419431 C1.73013333,31.8419431 2.18642963,32.2981043 2.18642963,32.8609005 C2.18642963,33.4236967 1.73013333,33.8798578 1.16717037,33.8798578 C0.604207407,33.8798578 0.147911111,33.4236967 0.147911111,32.8609005 C0.147911111,32.2981043 0.604207407,31.8419431 1.16717037,31.8419431" id="Fill-188" fill="#E6763A" mask="url(#mask-2)"></path>
                    <path d="M1.16717037,35.0646919 C1.73013333,35.0646919 2.18642963,35.5208531 2.18642963,36.0836493 C2.18642963,36.6464455 1.73013333,37.1026066 1.16717037,37.1026066 C0.604207407,37.1026066 0.147911111,36.6464455 0.147911111,36.0836493 C0.147911111,35.5208531 0.604207407,35.0646919 1.16717037,35.0646919" id="Fill-189" fill="#E6763A" mask="url(#mask-2)"></path>
                    <path d="M1.16717037,38.2874408 C1.73013333,38.2874408 2.18642963,38.7436019 2.18642963,39.3063981 C2.18642963,39.8691943 1.73013333,40.3253555 1.16717037,40.3253555 C0.604207407,40.3253555 0.147911111,39.8691943 0.147911111,39.3063981 C0.147911111,38.7436019 0.604207407,38.2874408 1.16717037,38.2874408" id="Fill-190" fill="#E6763A" mask="url(#mask-2)"></path>
                    <path d="M1.16717037,41.5101896 C1.73013333,41.5101896 2.18642963,41.9663507 2.18642963,42.5291469 C2.18642963,43.0919431 1.73013333,43.5481043 1.16717037,43.5481043 C0.604207407,43.5481043 0.147911111,43.0919431 0.147911111,42.5291469 C0.147911111,41.9663507 0.604207407,41.5101896 1.16717037,41.5101896" id="Fill-191" fill="#E6763A" mask="url(#mask-2)"></path>
                    <path d="M1.16717037,44.7329384 C1.73013333,44.7329384 2.18642963,45.1890995 2.18642963,45.7518957 C2.18642963,46.3146919 1.73013333,46.7708531 1.16717037,46.7708531 C0.604207407,46.7708531 0.147911111,46.3146919 0.147911111,45.7518957 C0.147911111,45.1890995 0.604207407,44.7329384 1.16717037,44.7329384" id="Fill-192" fill="#E6763A" mask="url(#mask-2)"></path>
                    <path d="M1.16717037,47.9556872 C1.73013333,47.9556872 2.18642963,48.4118483 2.18642963,48.9746445 C2.18642963,49.5374408 1.73013333,49.9936019 1.16717037,49.9936019 C0.604207407,49.9936019 0.147911111,49.5374408 0.147911111,48.9746445 C0.147911111,48.4118483 0.604207407,47.9556872 1.16717037,47.9556872" id="Fill-193" fill="#E6763A" mask="url(#mask-2)"></path>
                </g>
                <g id="Group-199" transform="translate(0.000000, 0.378788)">
                    <mask id="mask-4" fill="white">
                        <use xlink:href="#path-3"></use>
                    </mask>
                    <g id="Clip-196"></g>
                    <path d="M24.6013568,31.4282713 C16.4028112,22.999788 13.7811832,11.5085599 17.0701346,2.27284145 C17.1654666,2.01167718 17.0224687,1.7267707 16.7603059,1.65554408 C16.664974,1.60805966 16.5458091,1.60805966 16.4266441,1.65554408 C9.65807741,4.02976475 4.2718236,9.22930803 1.67402862,15.9008681 C-3.16406662,28.2468156 2.84184471,42.3496865 15.0919972,47.5017453 C24.6966887,51.5379205 35.8028581,49.1399576 42.8812536,41.5187092 C43.0719174,41.3287716 43.0480844,40.9963807 42.8574206,40.8301852 C42.7859217,40.7589586 42.6905897,40.7114742 42.5952578,40.7114742 C36.1841858,39.8330125 29.7492808,36.6990412 24.6013568,31.4282713" id="Fill-195" fill="#F5D35F" mask="url(#mask-4)"></path>
                    <path d="M47.457186,30.4785831 L47.457186,30.4785831 C47.481019,30.4310987 47.481019,30.3836143 47.504852,30.3361298 C47.6716829,29.6238636 47.8146807,28.9353396 47.9100127,28.2230734 C47.9100127,28.1993312 47.9100127,28.1518468 47.9338456,28.1281046 C47.9815116,27.7957137 48.0291776,27.4395806 48.0530106,27.1071897 C48.0530106,27.0834475 48.0530106,27.0597053 48.0530106,27.0359631 C48.1245095,26.3236969 48.1483425,25.6114307 48.1721755,24.8991645 C48.1721755,24.8754223 48.1721755,24.8754223 48.1721755,24.8516801 C48.1721755,24.5192892 48.1721755,24.1631561 48.1721755,23.8307652 L48.1721755,23.807023 C48.1721755,23.4508899 48.1483425,23.0947568 48.1245095,22.7623659 L48.1245095,22.7386237 C48.1006765,22.3824906 48.0530106,22.0263575 48.0053446,21.6702244 L48.0053446,21.6464822 C47.9576786,21.3140913 47.9100127,20.9817004 47.8623467,20.6730517 L47.8385137,20.5543407 C47.7193488,19.8658167 47.5763509,19.2010349 47.4095201,18.5362531 L47.3856871,18.417542 C47.2903551,18.0614089 47.1950232,17.7290181 47.0996913,17.3728849 C47.0043594,17.0404941 46.8851945,16.7081032 46.7660296,16.3757123 L46.7421966,16.3282279 C46.6230317,16.0433214 46.5276997,15.7346727 46.4085348,15.4497662 L46.3608689,15.3310552 C46.241704,15.0461487 46.1225391,14.7375 45.9795412,14.4525935 L45.9318752,14.3576247 C45.7888773,14.0727182 45.6458794,13.7640695 45.5028815,13.479163 L45.4552156,13.4079364 C45.2883847,13.0992877 45.1453868,12.790639 44.954723,12.5057326 L44.954723,12.4819904 C44.7878921,12.1733417 44.5972282,11.8884352 44.4065644,11.5797865 C44.0490697,10.9862313 43.643909,10.4164184 43.2149153,9.84660541 L43.1672494,9.77537879 C42.9527525,9.51421451 42.7620887,9.25305024 42.5475918,8.99188596 L42.4522599,8.89691714 C41.9994333,8.37458859 41.5227736,7.85226004 41.046114,7.3536737 L40.9746151,7.25870487 C40.7124523,6.9975406 40.4502895,6.73637632 40.1642937,6.49895426 L40.1404607,6.49895426 C39.9021309,6.28527439 39.6399681,6.04785233 39.3778053,5.83417247 L39.3063064,5.78668805 C39.0203106,5.54926599 38.7343148,5.33558612 38.448319,5.09816406 L38.424486,5.09816406 C38.1384903,4.8844842 37.8524945,4.69454654 37.5903317,4.48086668 L37.5426657,4.43338227 C37.232837,4.21970241 36.9468412,4.02976475 36.6131795,3.8398271 C36.1365198,3.53117841 35.6360272,3.24627193 35.1355346,2.98510766 L35.3738644,3.1275609 C35.5645283,3.24627193 35.7551921,3.34124076 35.945856,3.45995179 C36.1365198,3.57866282 36.3033507,3.67363165 36.4701816,3.79234269 C36.6370124,3.88731151 36.8038433,4.00602255 36.9706742,4.10099137 L36.9945072,4.10099137 C37.137505,4.1959602 37.3043359,4.31467123 37.4473338,4.40964006 L37.4711668,4.40964006 C37.6141647,4.50460889 37.7571626,4.62331992 37.8763275,4.71828875 L37.9001605,4.74203096 C38.0193254,4.83699978 38.1623232,4.93196861 38.2814882,5.05067964 L38.3053211,5.07442185 C38.424486,5.16939068 38.543651,5.2643595 38.6389829,5.38307054 L38.6866488,5.43055495 C38.7819808,5.52552378 38.9011457,5.62049261 38.9964776,5.71546143 L39.0441436,5.76294585 C39.1394755,5.85791467 39.2348074,5.9528835 39.3063064,6.04785233 L39.3539723,6.11907895 C39.4254713,6.21404777 39.5208032,6.3090166 39.5923021,6.40398543 L39.8306319,6.76011853 L39.8782979,6.85508736 C39.9259639,6.95005618 39.9974628,7.0212828 40.0451288,7.11625163 C40.0689618,7.16373604 40.0927947,7.18747825 40.1166277,7.23496266 C40.1642937,7.30618929 40.2119597,7.40115811 40.2596256,7.47238473 L40.3311246,7.63858018 C40.3549575,7.7098068 40.4026235,7.78103342 40.4264565,7.85226004 C40.4502895,7.92348666 40.4741224,7.99471328 40.5217884,8.08968211 C40.5694544,8.18465094 40.5694544,8.20839314 40.5932874,8.25587756 C40.6409533,8.3983308 40.6886193,8.51704183 40.7124523,8.65949507 C40.9269491,9.60918334 40.9507821,10.5826138 40.7362852,11.5323021 C40.3787905,13.4316786 39.4969702,15.1886019 39.1156425,17.0879785 C39.0441436,17.4203694 38.9964776,17.7290181 38.9488116,18.0376667 C38.9249787,18.1326356 38.9249787,18.2038622 38.9011457,18.2750888 C38.8534797,18.5125109 38.8296467,18.7499329 38.8058137,18.987355 C38.8058137,19.0585816 38.7819808,19.1298082 38.7819808,19.2010349 C37.8763275,26.6323456 40.5456214,31.5469824 44.1444016,38.1235737 C45.6935454,35.7730952 46.8136955,33.1851946 47.481019,30.4785831 L47.457186,30.4785831" id="Fill-197" fill="#E6763A" mask="url(#mask-4)"></path>
                    <path d="M47.1950232,31.499498 C47.2188562,29.3152149 47.2188562,29.3152149 29.3202871,12.0783728 C20.3114201,3.38872517 20.0015914,-1.21726294 28.5337987,0.563402566 C28.9627924,0.658371393 29.3679531,0.75334022 29.7731138,0.848309047 C42.9765855,4.33841344 50.8176364,17.8239869 47.3141881,30.9771694 C47.2665222,31.1433649 47.2188562,31.3333025 47.1950232,31.499498" id="Fill-198" fill="#F5D35F" mask="url(#mask-4)"></path>
                </g>
            </g>
        </g>
    </g>
</svg>